<?xml version="1.0" encoding="UTF-8" standalone="no" ?>
<!DOCTYPE svg PUBLIC "-//W3C//DTD SVG 1.1//EN" "http://www.w3.org/Graphics/SVG/1.1/DTD/svg11.dtd">
<svg xmlns="http://www.w3.org/2000/svg" xmlns:xlink="http://www.w3.org/1999/xlink" version="1.1" width="1080" height="1080" viewBox="0 0 1080 1080" xml:space="preserve">
<desc>Created with Fabric.js 5.2.4</desc>
<defs>
</defs>
<g transform="matrix(1 0 0 1 540 540)" id="753f2425-6aec-4e75-9588-a6253e1f6475"  >
<rect style="stroke: none; stroke-width: 1; stroke-dasharray: none; stroke-linecap: butt; stroke-dashoffset: 0; stroke-linejoin: miter; stroke-miterlimit: 4; fill: rgb(255,255,255); fill-rule: nonzero; opacity: 1; visibility: hidden;" vector-effect="non-scaling-stroke"  x="-540" y="-540" rx="0" ry="0" width="1080" height="1080" />
</g>
<g transform="matrix(1 0 0 1 540 540)" id="fc36cc1e-0e97-4818-9ff8-84a459ae01d1"  >
</g>
<g transform="matrix(5.4 0 0 5.26 517.7 654.65)"  >
<g style=""   >
		<g transform="matrix(1 0 0 1 14.1 -30.55)" id="desktop"  >
<path style="stroke: none; stroke-width: 1; stroke-dasharray: none; stroke-linecap: butt; stroke-dashoffset: 0; stroke-linejoin: miter; stroke-miterlimit: 4; fill: rgb(239,239,239); fill-rule: nonzero; opacity: 0.29;" vector-effect="non-scaling-stroke"  transform=" translate(-114.1, -94.45)" d="M 190.9 180.4 L 37.3 180.4 C 35.3 180.4 33.5 178.8 33.5 177.1 L 33.5 11.8 C 33.5 10 35.3 8.5 37.3 8.5 L 190.89999999999998 8.5 C 192.89999999999998 8.5 194.7 10.1 194.7 11.8 L 194.7 177.10000000000002 C 194.7 178.9 192.9 180.4 190.9 180.4 z" stroke-linecap="round" />
</g>
		<g transform="matrix(1 0 0 1 34.3 -51.6)" id="desktop"  >
<path style="stroke: none; stroke-width: 1; stroke-dasharray: none; stroke-linecap: butt; stroke-dashoffset: 0; stroke-linejoin: miter; stroke-miterlimit: 4; fill: rgb(255,255,255); fill-rule: nonzero; opacity: 1;" vector-effect="non-scaling-stroke"  transform=" translate(-134.3, -73.4)" d="M 188.2 129.5 L 80.19999999999999 129.5 C 79.1 129.5 78.39999999999999 128.4 78.39999999999999 127.3 L 78.39999999999999 19.5 C 78.39999999999999 18.4 79.3 17.3 80.19999999999999 17.3 L 188.39999999999998 17.3 C 189.29999999999998 17.3 190.2 18.400000000000002 190.2 19.5 L 190.2 127.1 C 190 128.2 189.3 129.5 188.2 129.5 z" stroke-linecap="round" />
</g>
		<g transform="matrix(1 0 0 1 34.3 -70.8)" id="desktop"  >
<linearGradient id="SVGID_SVGID_1__3" gradientUnits="userSpaceOnUse" gradientTransform="matrix(2 0 0 2 20 -275)"  x1="26.9746" y1="159.287" x2="87.3643" y2="169.9353">
<stop offset="0%" style="stop-color:rgb(110,195,244);stop-opacity: 1"/>
<stop offset="2.1050269999999998%" style="stop-color:rgb(116,186,240);stop-opacity: 1"/>
<stop offset="15.290000000000001%" style="stop-color:rgb(148,137,214);stop-opacity: 1"/>
<stop offset="28.799999999999997%" style="stop-color:rgb(176,95,192);stop-opacity: 1"/>
<stop offset="42.44%" style="stop-color:rgb(199,61,174);stop-opacity: 1"/>
<stop offset="56.24%" style="stop-color:rgb(216,34,161);stop-opacity: 1"/>
<stop offset="70.27%" style="stop-color:rgb(229,15,151);stop-opacity: 1"/>
<stop offset="84.67%" style="stop-color:rgb(237,4,145);stop-opacity: 1"/>
<stop offset="100%" style="stop-color:rgb(239,0,143);stop-opacity: 1"/>
</linearGradient>
<path style="stroke: none; stroke-width: 1; stroke-dasharray: none; stroke-linecap: butt; stroke-dashoffset: 0; stroke-linejoin: miter; stroke-miterlimit: 4; fill: url(#SVGID_SVGID_1__3); fill-rule: nonzero; opacity: 1;" vector-effect="non-scaling-stroke"  transform=" translate(-134.3, -54.2)" d="M 188.3 91 L 80.2 91 C 79.10000000000001 91 78.4 90.9 78.4 90.1 L 78.4 18.69999999999999 C 78.4 17.99999999999999 79.10000000000001 17.29999999999999 80.2 17.29999999999999 L 188.4 17.29999999999999 C 189.5 17.29999999999999 190.20000000000002 17.99999999999999 190.20000000000002 18.69999999999999 L 190.20000000000002 90.6 C 190.2 91.4 189.4 91 188.3 91 z" stroke-linecap="round" />
</g>
		<g transform="matrix(1 0 0 1 34.4 -70.9)" id="desktop"  >
<linearGradient id="SVGID_SVGID_2__4" gradientUnits="userSpaceOnUse" gradientTransform="matrix(2 0 0 2 20 -275)"  x1="34.0605" y1="141.3476" x2="80.4122" y2="187.6992">
<stop offset="0%" style="stop-color:rgb(63,161,255);stop-opacity: 0"/>
<stop offset="19.02%" style="stop-color:rgb(48,142,255);stop-opacity: 0.07607396"/>
<stop offset="44.91%" style="stop-color:rgb(33,123,255);stop-opacity: 0.1796"/>
<stop offset="71.58%" style="stop-color:rgb(24,112,255);stop-opacity: 0.2863"/>
<stop offset="100%" style="stop-color:rgb(21,108,255);stop-opacity: 0.4"/>
</linearGradient>
<path style="stroke: none; stroke-width: 1; stroke-dasharray: none; stroke-linecap: butt; stroke-dashoffset: 0; stroke-linejoin: miter; stroke-miterlimit: 4; fill: url(#SVGID_SVGID_2__4); fill-rule: nonzero; opacity: 1;" vector-effect="non-scaling-stroke"  transform=" translate(-134.4, -54.1)" d="M 78.5 17.3 L 188.5 17.3 C 189.6 17.3 190.3 18.2 190.3 19.7 L 190.3 90.9 L 80.5 90.9 C 79.6 90.9 78.7 90 78.7 88.5 L 78.7 17.3 L 78.5 17.3 z" stroke-linecap="round" />
</g>
		<g transform="matrix(1 0 0 1 13.15 8.45)" id="desktop"  >
<path style="stroke: none; stroke-width: 1; stroke-dasharray: none; stroke-linecap: butt; stroke-dashoffset: 0; stroke-linejoin: miter; stroke-miterlimit: 4; fill: rgb(255,255,255); fill-rule: nonzero; opacity: 1;" vector-effect="non-scaling-stroke"  transform=" translate(-113.15, -133.45)" d="M 187.4 176 L 38.7 176 C 37.2 176 36.1 174.9 36.1 173.8 L 36.1 90.9 L 190.2 90.9 L 190.2 173.8 C 190 174.9 188.9 176 187.4 176 z" stroke-linecap="round" />
</g>
		<g transform="matrix(1 0 0 1 34.5 -59.05)" id="desktop"  >
<linearGradient id="SVGID_SVGID_3__5" gradientUnits="userSpaceOnUse" gradientTransform="matrix(2 0 0 2 20 -275)"  x1="39.1149" y1="164.7085" x2="71.2205" y2="196.8141">
<stop offset="0%" style="stop-color:rgb(110,195,244);stop-opacity: 1"/>
<stop offset="2.1050269999999998%" style="stop-color:rgb(116,186,240);stop-opacity: 1"/>
<stop offset="15.290000000000001%" style="stop-color:rgb(148,137,214);stop-opacity: 1"/>
<stop offset="28.799999999999997%" style="stop-color:rgb(176,95,192);stop-opacity: 1"/>
<stop offset="42.44%" style="stop-color:rgb(199,61,174);stop-opacity: 1"/>
<stop offset="56.24%" style="stop-color:rgb(216,34,161);stop-opacity: 1"/>
<stop offset="70.27%" style="stop-color:rgb(229,15,151);stop-opacity: 1"/>
<stop offset="84.67%" style="stop-color:rgb(237,4,145);stop-opacity: 1"/>
<stop offset="100%" style="stop-color:rgb(239,0,143);stop-opacity: 1"/>
</linearGradient>
<path style="stroke: none; stroke-width: 1; stroke-dasharray: none; stroke-linecap: butt; stroke-dashoffset: 0; stroke-linejoin: miter; stroke-miterlimit: 4; fill: url(#SVGID_SVGID_3__5); fill-rule: nonzero; opacity: 1;" vector-effect="non-scaling-stroke"  transform=" translate(-134.5, -65.95)" d="M 78.9 90.8 C 109.5 17.200000000000003 133.2 32 190.10000000000002 90.89999999999999 L 78.9 90.8 z" stroke-linecap="round" />
</g>
		<g transform="matrix(1 0 0 1 -31.8 -21.9)" id="desktop"  >
<path style="stroke: none; stroke-width: 1; stroke-dasharray: none; stroke-linecap: butt; stroke-dashoffset: 0; stroke-linejoin: miter; stroke-miterlimit: 4; fill: rgb(239,239,239); fill-rule: nonzero; opacity: 1;" vector-effect="non-scaling-stroke"  transform=" translate(-68.2, -103.1)" d="M 89.7 107.4 L 46.5 107.4 C 45.2 107.4 43.9 106.30000000000001 43.9 105.2 L 43.9 101 C 43.9 99.9 45.199999999999996 98.8 46.5 98.8 L 89.9 98.8 C 91.2 98.8 92.5 99.89999999999999 92.5 101 L 92.5 105.2 C 92.3 106.3 91 107.4 89.7 107.4 z" stroke-linecap="round" />
</g>
		<g transform="matrix(1 0 0 1 -31.8 -5.3)" id="desktop"  >
<path style="stroke: none; stroke-width: 1; stroke-dasharray: none; stroke-linecap: butt; stroke-dashoffset: 0; stroke-linejoin: miter; stroke-miterlimit: 4; fill: rgb(239,239,239); fill-rule: nonzero; opacity: 1;" vector-effect="non-scaling-stroke"  transform=" translate(-68.2, -119.7)" d="M 89.7 124 L 46.5 124 C 45.2 124 43.9 123.1 43.9 121.8 L 43.9 117.6 C 43.9 116.3 45.199999999999996 115.39999999999999 46.5 115.39999999999999 L 89.9 115.39999999999999 C 91.2 115.39999999999999 92.5 116.3 92.5 117.6 L 92.5 121.8 C 92.3 122.9 91 124 89.7 124 z" stroke-linecap="round" />
</g>
		<g transform="matrix(1 0 0 1 40.4 -4.15)" id="desktop"  >
<path style="stroke: none; stroke-width: 1; stroke-dasharray: none; stroke-linecap: butt; stroke-dashoffset: 0; stroke-linejoin: miter; stroke-miterlimit: 4; fill: rgb(239,239,239); fill-rule: nonzero; opacity: 1;" vector-effect="non-scaling-stroke"  transform=" translate(-140.4, -120.85)" d="M 179.2 142.9 L 101.6 142.9 C 100.3 142.9 99 141.8 99 140.70000000000002 L 99 101 C 99 99.9 100.3 98.8 101.6 98.8 L 179.2 98.8 C 180.7 98.8 181.79999999999998 99.89999999999999 181.79999999999998 101 L 181.79999999999998 140.7 C 181.7 141.8 180.5 142.9 179.2 142.9 z" stroke-linecap="round" />
</g>
		<g transform="matrix(1 0 0 1 -44.6 1.7)" id="desktop"  >
<path style="stroke: none; stroke-width: 1; stroke-dasharray: none; stroke-linecap: butt; stroke-dashoffset: 0; stroke-linejoin: miter; stroke-miterlimit: 4; fill: rgb(239,239,239); fill-rule: nonzero; opacity: 1;" vector-effect="non-scaling-stroke"  transform=" translate(-55.4, -126.7)" d="M 66.8 129 C 66.8 130.3 65.7 131.2 64.2 131.2 L 46.5 131.2 C 45 131.2 43.9 130.29999999999998 43.9 129 L 43.9 124.4 C 43.9 123.10000000000001 45 122.2 46.5 122.2 L 64.3 122.2 C 65.8 122.2 66.89999999999999 123.10000000000001 66.89999999999999 124.4 L 66.89999999999999 129 z" stroke-linecap="round" />
</g>
		<g transform="matrix(1 0 0 1 -19.2 10.8)" id="desktop"  >
<path style="stroke: none; stroke-width: 1; stroke-dasharray: none; stroke-linecap: butt; stroke-dashoffset: 0; stroke-linejoin: miter; stroke-miterlimit: 4; fill: rgb(239,239,239); fill-rule: nonzero; opacity: 1;" vector-effect="non-scaling-stroke"  transform=" translate(-80.8, -135.8)" d="M 92.3 138.1 C 92.3 139.4 91.2 140.29999999999998 89.7 140.29999999999998 L 71.9 140.29999999999998 C 70.4 140.29999999999998 69.30000000000001 139.39999999999998 69.30000000000001 138.1 L 69.30000000000001 133.5 C 69.30000000000001 132.2 70.4 131.3 71.9 131.3 L 89.7 131.3 C 91.2 131.3 92.3 132.20000000000002 92.3 133.5 L 92.3 138.1 z" stroke-linecap="round" />
</g>
		<g transform="matrix(1 0 0 1 -44.6 12.8)" id="desktop"  >
<path style="stroke: none; stroke-width: 1; stroke-dasharray: none; stroke-linecap: butt; stroke-dashoffset: 0; stroke-linejoin: miter; stroke-miterlimit: 4; fill: rgb(239,239,239); fill-rule: nonzero; opacity: 1;" vector-effect="non-scaling-stroke"  transform=" translate(-55.4, -137.8)" d="M 66.8 140.1 C 66.8 141.4 65.7 142.29999999999998 64.2 142.29999999999998 L 46.5 142.29999999999998 C 45 142.29999999999998 43.9 141.39999999999998 43.9 140.1 L 43.9 135.5 C 43.9 134.2 45 133.3 46.5 133.3 L 64.3 133.3 C 65.8 133.3 66.89999999999999 134.20000000000002 66.89999999999999 135.5 L 66.89999999999999 140.1 z" stroke-linecap="round" />
</g>
		<g transform="matrix(1 0 0 1 -61.9 -112.4)" id="desktop"  >
<circle style="stroke: none; stroke-width: 1; stroke-dasharray: none; stroke-linecap: butt; stroke-dashoffset: 0; stroke-linejoin: miter; stroke-miterlimit: 4; fill: rgb(239,239,239); fill-rule: nonzero; opacity: 1;" vector-effect="non-scaling-stroke"  cx="0" cy="0" r="1.1" />
</g>
		<g transform="matrix(1 0 0 1 -56.4 -112.4)" id="desktop"  >
<circle style="stroke: none; stroke-width: 1; stroke-dasharray: none; stroke-linecap: butt; stroke-dashoffset: 0; stroke-linejoin: miter; stroke-miterlimit: 4; fill: rgb(239,239,239); fill-rule: nonzero; opacity: 1;" vector-effect="non-scaling-stroke"  cx="0" cy="0" r="1.1" />
</g>
		<g transform="matrix(1 0 0 1 -50.9 -112.4)" id="desktop"  >
<circle style="stroke: none; stroke-width: 1; stroke-dasharray: none; stroke-linecap: butt; stroke-dashoffset: 0; stroke-linejoin: miter; stroke-miterlimit: 4; fill: rgb(239,239,239); fill-rule: nonzero; opacity: 1;" vector-effect="non-scaling-stroke"  cx="0" cy="0" r="1.1" />
</g>
		<g transform="matrix(1 0 0 1 13 34.45)" id="desktop"  >
<path style="stroke: none; stroke-width: 1; stroke-dasharray: none; stroke-linecap: butt; stroke-dashoffset: 0; stroke-linejoin: miter; stroke-miterlimit: 4; fill: rgb(239,239,239); fill-rule: nonzero; opacity: 1;" vector-effect="non-scaling-stroke"  transform=" translate(-113, -159.45)" d="M 179.2 170.7 L 47 170.7 C 45.7 170.7 44.4 169.79999999999998 44.4 168.5 L 44.4 150.4 C 44.4 149.3 45.699999999999996 148.20000000000002 47 148.20000000000002 L 179 148.20000000000002 C 180.5 148.20000000000002 181.6 149.3 181.6 150.4 L 181.6 168.5 C 181.7 169.6 180.5 170.7 179.2 170.7 z" stroke-linecap="round" />
</g>
		<g transform="matrix(1 0 0 1 -57.5 -39.4)" id="phone"  >
<path style="stroke: none; stroke-width: 1; stroke-dasharray: none; stroke-linecap: butt; stroke-dashoffset: 0; stroke-linejoin: miter; stroke-miterlimit: 4; fill: rgb(244,244,244); fill-rule: nonzero; opacity: 1;" vector-effect="non-scaling-stroke"  transform=" translate(-42.5, -85.6)" d="M 64.8 142.9 L 20 142.9 C 16.2 142.9 13.2 139.8 13.2 136.1 L 13.2 35.099999999999994 C 13.2 31.399999999999995 16.099999999999998 28.299999999999994 20 28.299999999999994 L 65 28.299999999999994 C 68.8 28.299999999999994 71.8 31.399999999999995 71.8 35.099999999999994 L 71.8 136.1 C 71.6 139.8 68.6 142.9 64.8 142.9 z" stroke-linecap="round" />
</g>
		<g transform="matrix(1 0 0 1 -57.7 -39.45)" id="phone"  >
<linearGradient id="SVGID_SVGID_4__6" gradientUnits="userSpaceOnUse" gradientTransform="matrix(2 0 0 2 20 -275)"  x1="-8.6018" y1="200.0402" x2="30.886" y2="160.5524">
<stop offset="0%" style="stop-color:rgb(63,161,255);stop-opacity: 1"/>
<stop offset="8.395505%" style="stop-color:rgb(79,142,243);stop-opacity: 1"/>
<stop offset="25.8%" style="stop-color:rgb(106,108,223);stop-opacity: 1"/>
<stop offset="43.59%" style="stop-color:rgb(128,81,207);stop-opacity: 1"/>
<stop offset="61.67%" style="stop-color:rgb(144,62,195);stop-opacity: 1"/>
<stop offset="80.23%" style="stop-color:rgb(153,51,188);stop-opacity: 1"/>
<stop offset="100%" style="stop-color:rgb(156,47,186);stop-opacity: 1"/>
</linearGradient>
<path style="stroke: none; stroke-width: 1; stroke-dasharray: none; stroke-linecap: butt; stroke-dashoffset: 0; stroke-linejoin: miter; stroke-miterlimit: 4; fill: url(#SVGID_SVGID_4__6); fill-rule: nonzero; opacity: 1;" vector-effect="non-scaling-stroke"  transform=" translate(-42.3, -85.55)" d="M 64.8 140.1 L 19.799999999999997 140.1 C 17.199999999999996 140.1 15.199999999999998 138.1 15.199999999999998 135.5 L 15.199999999999998 35.6 C 15.199999999999998 33 17.199999999999996 31 19.799999999999997 31 L 64.8 31 C 67.39999999999999 31 69.39999999999999 33 69.39999999999999 35.6 L 69.39999999999999 135.5 C 69.4 138.1 67.4 140.1 64.8 140.1 z" stroke-linecap="round" />
</g>
		<g transform="matrix(1 0 0 1 -57.5 -29.5)" id="phone"  >
<linearGradient id="SVGID_SVGID_5__7" gradientUnits="userSpaceOnUse" gradientTransform="matrix(2 0 0 2 20 -275)"  x1="11.2793" y1="207.5432" x2="11.2793" y2="162.6175">
<stop offset="0%" style="stop-color:rgb(170,0,113);stop-opacity: 1"/>
<stop offset="1.8903199999999998%" style="stop-color:rgb(172,0,113);stop-opacity: 1"/>
<stop offset="25.31%" style="stop-color:rgb(199,0,118);stop-opacity: 1"/>
<stop offset="49.24%" style="stop-color:rgb(218,0,121);stop-opacity: 1"/>
<stop offset="73.82%" style="stop-color:rgb(229,0,122);stop-opacity: 1"/>
<stop offset="100%" style="stop-color:rgb(233,0,123);stop-opacity: 1"/>
</linearGradient>
<path style="stroke: none; stroke-width: 1; stroke-dasharray: none; stroke-linecap: butt; stroke-dashoffset: 0; stroke-linejoin: miter; stroke-miterlimit: 4; fill: url(#SVGID_SVGID_5__7); fill-rule: nonzero; opacity: 0.63;" vector-effect="non-scaling-stroke"  transform=" translate(-42.5, -95.5)" d="M 15.7 137.6 C 42.099999999999994 119.69999999999999 42.4 76.3 69.3 50.5 L 69.3 137 C 69.3 137 68.39999999999999 140.5 64.7 140.5 C 63.400000000000006 140.5 18.800000000000004 140.5 18.800000000000004 140.5 C 18.400000000000006 140.5 17.900000000000006 140.3 17.500000000000004 139.8 C 16.7 138.9 15.9 137.9 15.7 137.6 z" stroke-linecap="round" />
</g>
</g>
</g>
</svg>